<?xml version="1.0" encoding="UTF-8"?><svg id="a" xmlns="http://www.w3.org/2000/svg" xmlns:xlink="http://www.w3.org/1999/xlink" viewBox="0 0 869.24658 241.41357"><defs><linearGradient id="b" x1="9.04541" y1="12.58643" x2="869.24658" y2="12.58643" gradientTransform="translate(0 244) scale(1 -1)" gradientUnits="userSpaceOnUse"><stop offset="0" stop-color="#20335d"/><stop offset=".16667" stop-color="#216fb7"/><stop offset=".33598" stop-color="#63c9d6"/><stop offset=".4418" stop-color="#9dd5bd"/><stop offset=".55291" stop-color="#037296"/><stop offset=".7191" stop-color="#f0d837"/><stop offset=".75329" stop-color="#efd436"/><stop offset=".78538" stop-color="#edc834"/><stop offset=".81664" stop-color="#e9b530"/><stop offset=".84721" stop-color="#e49b2b"/><stop offset=".8545" stop-color="#e3942a"/><stop offset="1" stop-color="#bc6133"/></linearGradient></defs><path d="M68.43164,0v67.36865c10.41357-8.94336,23.50439-15.20312,40.46436-15.20312,38.38184,0,72.29932,30.10742,72.29932,77.5039s-34.81104,84.06152-90.44873,84.06152C40.1665,213.73096,0,180.94189,0,130.26611V0h68.43164ZM111.27637,133.24561c0-12.2207-8.62842-21.46289-21.42236-21.46289-11.30664,0-19.63721,7.45215-21.42236,17.58789l-.29785,1.19238v2.68262c0,12.22266,8.92627,21.46289,21.72021,21.46289s21.42236-9.24023,21.42236-21.46289h.00002Z"/><path d="M283.33057,213.73096c-56.53027,0-92.53223-35.47266-92.53223-82.86914s35.40625-83.16602,91.93652-83.16602c57.42334,0,91.9375,35.47266,91.9375,82.27247l-.59473,12.52051h-113.06201c0,15.79785,8.33057,27.12598,23.20703,27.12598,10.11572,0,16.36377-4.76953,18.44727-13.41504h67.83691c-8.33057,37.26172-41.05957,57.53125-87.17725,57.53125h.00098ZM283.62891,90.02393c-13.68604,0-21.12451,10.43262-21.42236,23.54883h42.24854c-.29688-13.41406-7.4375-23.54883-20.82617-23.54883Z"/><path d="M383.99756,130.85889c0-47.09766,35.40625-83.16602,91.63867-83.16602,56.53027,0,91.63965,35.47266,91.63965,81.97462v79.29199h-68.72949v-13.71191c-10.11621,11.62598-26.18164,18.18262-41.6543,18.48145-38.67773.29785-72.89453-32.79102-72.89453-82.87012ZM497.95166,130.56201c0-12.22266-8.62891-21.46289-21.42285-21.46289s-21.71973,9.24023-21.71973,21.46289c0,12.22168,8.92578,21.46191,21.71973,21.46191s21.42285-9.24121,21.42285-21.46191Z"/><path d="M665.02197,47.69727c27.37207,0,47.30762,12.22119,57.12598,23.54883,10.11621-11.32764,30.05078-23.54883,57.42383-23.54883,52.36523,0,80.63086,31.29883,80.63086,75.4165v85.85059h-69.02734v-77.20508c0-12.22266-4.46191-21.46289-17.25586-21.46289s-16.95898,9.24023-16.95898,21.46289v77.20508h-69.02734v-77.20508c0-12.22266-4.46289-21.46289-17.25684-21.46289s-17.55469,9.24023-17.55469,21.46289v77.20508h-69.02637v-85.85059c0-44.11768,28.26465-75.4165,80.92773-75.4165,0,0-.00098,0-.00098,0Z"/><line x1="9.04541" y1="231.41357" x2="869.24658" y2="231.41357" style="fill:none; stroke:url(#b); stroke-miterlimit:10; stroke-width:20px;"/></svg>